# xmcd CD database file
#
# Track frame offsets:
#	150
#	20825
#	41207
#	60475
#	75220
#	92902
#	115827
#	133900
#	152092
#
# Disc length: 2419 seconds
#
# Revision: 6
# Processed by: cddbd v1.5.2PL0 Copyright (c) Steve Scherf et al.
# Submitted via: CDex 1.51
#
DISCID=71097109
DTITLE=Hound Dog Taylor And The House Rockers - Beware Of The Dog
DYEAR=1976
DGENRE=Blues
TTITLE0=Give Me Back My Wig
TTITLE1=The Sun Is Shining
TTITLE2=Kitchen Sink Boogie
TTITLE3=Dust My Broom
TTITLE4=Comin' Around The Mountain
TTITLE5=Let's Get Funky
TTITLE6=Rock Me
TTITLE7=It's Allright
TTITLE8=Freddie's Blues
EXTD=YEAR: 1976
EXTT0=
EXTT1=
EXTT2=
EXTT3=
EXTT4=
EXTT5=
EXTT6=
EXTT7=
EXTT8=
PLAYORDER=
